<?xml version="1.0" encoding="utf-8"?>
<!-- Generated by IcoMoon.io -->
<!DOCTYPE svg PUBLIC "-//W3C//DTD SVG 1.1//EN" "http://www.w3.org/Graphics/SVG/1.1/DTD/svg11.dtd">
<svg version="1.1" xmlns="http://www.w3.org/2000/svg" xmlns:xlink="http://www.w3.org/1999/xlink" width="640" height="640" viewBox="0 0 640 640">
<g id="icomoon-ignore">
</g>
<path fill="#333" d="M524.8 288h-409.6c-17.664 0-19.2 14.304-19.2 32s1.536 32 19.2 32h409.6c17.664 0 19.2-14.304 19.2-32s-1.536-32-19.2-32zM524.8 416h-409.6c-17.664 0-19.2 14.304-19.2 32s1.536 32 19.2 32h409.6c17.664 0 19.2-14.304 19.2-32s-1.536-32-19.2-32zM115.2 224h409.6c17.664 0 19.2-14.304 19.2-32s-1.536-32-19.2-32h-409.6c-17.664 0-19.2 14.304-19.2 32s1.536 32 19.2 32z"></path>
</svg>
